solid CATIA STL
  facet normal  0.000000e+000  -0.000000e+000  1.000000e+000
    outer loop
      vertex -2.185648e+001  1.532089e+000  1.000000e+001
      vertex -6.427876e+000  1.186741e+001  1.000000e+001
      vertex -5.495090e+000  1.256184e+001  1.000000e+001
    endloop
  endfacet
  facet normal  0.000000e+000  -0.000000e+000  1.000000e+000
    outer loop
      vertex -2.185648e+001  1.532089e+000  1.000000e+001
      vertex -2.057091e+001  3.552714e-015  1.000000e+001
      vertex -6.427876e+000  1.186741e+001  1.000000e+001
    endloop
  endfacet
  facet normal  -0.000000e+000  -0.000000e+000  1.000000e+000
    outer loop
      vertex -1.048991e-014  1.420697e+001  1.000000e+001
      vertex  1.160929e+000  1.413935e+001  1.000000e+001
      vertex  6.759840e+000  1.412183e+001  1.000000e+001
    endloop
  endfacet
  facet normal  0.000000e+000  0.000000e+000  1.000000e+000
    outer loop
      vertex  2.057091e+001 -1.776357e-015  1.000000e+001
      vertex  2.185648e+001  1.532089e+000  1.000000e+001
      vertex  6.427876e+000  1.186741e+001  1.000000e+001
    endloop
  endfacet
  facet normal  0.000000e+000  0.000000e+000  1.000000e+000
    outer loop
      vertex  7.713451e+000  1.339950e+001  1.000000e+001
      vertex  6.759840e+000  1.412183e+001  1.000000e+001
      vertex  1.160929e+000  1.413935e+001  1.000000e+001
    endloop
  endfacet
  facet normal  0.000000e+000  0.000000e+000  9.999999e-001
    outer loop
      vertex  7.713451e+000  1.339950e+001  1.000000e+001
      vertex  1.160929e+000  1.413935e+001  1.000000e+001
      vertex  2.306159e+000  1.393741e+001  1.000000e+001
    endloop
  endfacet
  facet normal  0.000000e+000  0.000000e+000  9.999999e-001
    outer loop
      vertex  7.713451e+000  1.339950e+001  1.000000e+001
      vertex  2.306159e+000  1.393741e+001  1.000000e+001
      vertex  3.420202e+000  1.360389e+001  1.000000e+001
    endloop
  endfacet
  facet normal  0.000000e+000  0.000000e+000  1.000000e+000
    outer loop
      vertex  7.713451e+000  1.339950e+001  1.000000e+001
      vertex  3.420202e+000  1.360389e+001  1.000000e+001
      vertex  4.487992e+000  1.314329e+001  1.000000e+001
    endloop
  endfacet
  facet normal  -0.000000e+000  0.000000e+000  1.000000e+000
    outer loop
      vertex  7.713451e+000  1.339950e+001  1.000000e+001
      vertex  4.487992e+000  1.314329e+001  1.000000e+001
      vertex  5.495090e+000  1.256184e+001  1.000000e+001
    endloop
  endfacet
  facet normal  -0.000000e+000  0.000000e+000  1.000000e+000
    outer loop
      vertex  7.713451e+000  1.339950e+001  1.000000e+001
      vertex  5.495090e+000  1.256184e+001  1.000000e+001
      vertex  6.427876e+000  1.186741e+001  1.000000e+001
    endloop
  endfacet
  facet normal  -0.000000e+000  0.000000e+000  1.000000e+000
    outer loop
      vertex  7.713451e+000  1.339950e+001  1.000000e+001
      vertex  6.427876e+000  1.186741e+001  1.000000e+001
      vertex  2.185648e+001  1.532089e+000  1.000000e+001
    endloop
  endfacet
  facet normal  0.000000e+000  0.000000e+000  1.000000e+000
    outer loop
      vertex -7.713451e+000  1.339950e+001  1.000000e+001
      vertex -2.185648e+001  1.532089e+000  1.000000e+001
      vertex -5.495090e+000  1.256184e+001  1.000000e+001
    endloop
  endfacet
  facet normal  0.000000e+000  -0.000000e+000  1.000000e+000
    outer loop
      vertex -7.713451e+000  1.339950e+001  1.000000e+001
      vertex -5.495090e+000  1.256184e+001  1.000000e+001
      vertex -4.487992e+000  1.314329e+001  1.000000e+001
    endloop
  endfacet
  facet normal  0.000000e+000  -0.000000e+000  1.000000e+000
    outer loop
      vertex -7.713451e+000  1.339950e+001  1.000000e+001
      vertex -4.487992e+000  1.314329e+001  1.000000e+001
      vertex -3.420202e+000  1.360389e+001  1.000000e+001
    endloop
  endfacet
  facet normal  0.000000e+000  -0.000000e+000  1.000000e+000
    outer loop
      vertex -7.713451e+000  1.339950e+001  1.000000e+001
      vertex -3.420202e+000  1.360389e+001  1.000000e+001
      vertex -2.306159e+000  1.393741e+001  1.000000e+001
    endloop
  endfacet
  facet normal  0.000000e+000  -0.000000e+000  9.999999e-001
    outer loop
      vertex -7.713451e+000  1.339950e+001  1.000000e+001
      vertex -2.306159e+000  1.393741e+001  1.000000e+001
      vertex -1.160929e+000  1.413935e+001  1.000000e+001
    endloop
  endfacet
  facet normal  0.000000e+000  0.000000e+000  1.000000e+000
    outer loop
      vertex -7.713451e+000  1.339950e+001  1.000000e+001
      vertex -1.160929e+000  1.413935e+001  1.000000e+001
      vertex -6.759840e+000  1.412183e+001  1.000000e+001
    endloop
  endfacet
  facet normal  0.000000e+000  0.000000e+000  1.000000e+000
    outer loop
      vertex  6.759840e+000  1.412183e+001  1.000000e+001
      vertex  5.739048e+000  1.474562e+001  1.000000e+001
      vertex -1.048991e-014  1.420697e+001  1.000000e+001
    endloop
  endfacet
  facet normal  0.000000e+000  -0.000000e+000  9.999999e-001
    outer loop
      vertex -1.048991e-014  1.420697e+001  1.000000e+001
      vertex  5.739048e+000  1.474562e+001  1.000000e+001
      vertex -5.739048e+000  1.474562e+001  1.000000e+001
    endloop
  endfacet
  facet normal  0.000000e+000  0.000000e+000  1.000000e+000
    outer loop
      vertex -1.048991e-014  1.420697e+001  1.000000e+001
      vertex -5.739048e+000  1.474562e+001  1.000000e+001
      vertex -1.160929e+000  1.413935e+001  1.000000e+001
    endloop
  endfacet
  facet normal  0.000000e+000  0.000000e+000  1.000000e+000
    outer loop
      vertex -1.160929e+000  1.413935e+001  1.000000e+001
      vertex -5.739048e+000  1.474562e+001  1.000000e+001
      vertex -6.759840e+000  1.412183e+001  1.000000e+001
    endloop
  endfacet
  facet normal  0.000000e+000  0.000000e+000  1.000000e+000
    outer loop
      vertex -5.739048e+000  1.474562e+001  1.000000e+001
      vertex  5.739048e+000  1.474562e+001  1.000000e+001
      vertex -4.661218e+000  1.526468e+001  1.000000e+001
    endloop
  endfacet
  facet normal  -0.000000e+000  0.000000e+000  1.000000e+000
    outer loop
      vertex -4.661218e+000  1.526468e+001  1.000000e+001
      vertex  5.739048e+000  1.474562e+001  1.000000e+001
      vertex  4.661218e+000  1.526468e+001  1.000000e+001
    endloop
  endfacet
  facet normal  0.000000e+000  0.000000e+000  1.000000e+000
    outer loop
      vertex -4.661218e+000  1.526468e+001  1.000000e+001
      vertex  4.661218e+000  1.526468e+001  1.000000e+001
      vertex -3.537062e+000  1.567384e+001  1.000000e+001
    endloop
  endfacet
  facet normal  -0.000000e+000  0.000000e+000  1.000000e+000
    outer loop
      vertex -3.537062e+000  1.567384e+001  1.000000e+001
      vertex  4.661218e+000  1.526468e+001  1.000000e+001
      vertex  3.537062e+000  1.567384e+001  1.000000e+001
    endloop
  endfacet
  facet normal  0.000000e+000  0.000000e+000  1.000000e+000
    outer loop
      vertex -3.537062e+000  1.567384e+001  1.000000e+001
      vertex  3.537062e+000  1.567384e+001  1.000000e+001
      vertex -2.377754e+000  1.596904e+001  1.000000e+001
    endloop
  endfacet
  facet normal  -0.000000e+000  0.000000e+000  1.000000e+000
    outer loop
      vertex -2.377754e+000  1.596904e+001  1.000000e+001
      vertex  3.537062e+000  1.567384e+001  1.000000e+001
      vertex  2.377754e+000  1.596904e+001  1.000000e+001
    endloop
  endfacet
  facet normal  0.000000e+000  0.000000e+000  1.000000e+000
    outer loop
      vertex -2.377754e+000  1.596904e+001  1.000000e+001
      vertex  2.377754e+000  1.596904e+001  1.000000e+001
      vertex -1.194814e+000  1.614734e+001  1.000000e+001
    endloop
  endfacet
  facet normal  -0.000000e+000  0.000000e+000  1.000000e+000
    outer loop
      vertex -1.194814e+000  1.614734e+001  1.000000e+001
      vertex  2.377754e+000  1.596904e+001  1.000000e+001
      vertex  1.194814e+000  1.614734e+001  1.000000e+001
    endloop
  endfacet
  facet normal  0.000000e+000  0.000000e+000  1.000000e+000
    outer loop
      vertex -1.194814e+000  1.614734e+001  1.000000e+001
      vertex  1.194814e+000  1.614734e+001  1.000000e+001
      vertex  7.347881e-016  1.620697e+001  1.000000e+001
    endloop
  endfacet
  facet normal  -0.000000e+000  0.000000e+000 -1.000000e+000
    outer loop
      vertex -5.495090e+000  1.256184e+001  0.000000e+000
      vertex -6.427876e+000  1.186741e+001  0.000000e+000
      vertex -2.185648e+001  1.532089e+000  0.000000e+000
    endloop
  endfacet
  facet normal  0.000000e+000  0.000000e+000 -1.000000e+000
    outer loop
      vertex -6.427876e+000  1.186741e+001  0.000000e+000
      vertex -2.057091e+001  3.552714e-015  0.000000e+000
      vertex -2.185648e+001  1.532089e+000  0.000000e+000
    endloop
  endfacet
  facet normal  0.000000e+000  0.000000e+000 -1.000000e+000
    outer loop
      vertex  6.759840e+000  1.412183e+001  0.000000e+000
      vertex  1.160929e+000  1.413935e+001  0.000000e+000
      vertex -1.048991e-014  1.420697e+001  0.000000e+000
    endloop
  endfacet
  facet normal  -0.000000e+000  0.000000e+000 -1.000000e+000
    outer loop
      vertex  6.427876e+000  1.186741e+001  0.000000e+000
      vertex  2.185648e+001  1.532089e+000  0.000000e+000
      vertex  2.057091e+001 -1.776357e-015  0.000000e+000
    endloop
  endfacet
  facet normal  0.000000e+000  0.000000e+000 -9.999999e-001
    outer loop
      vertex  7.713451e+000  1.339950e+001  0.000000e+000
      vertex  2.185648e+001  1.532089e+000  0.000000e+000
      vertex  6.427876e+000  1.186741e+001  0.000000e+000
    endloop
  endfacet
  facet normal  0.000000e+000  0.000000e+000 -1.000000e+000
    outer loop
      vertex  7.713451e+000  1.339950e+001  0.000000e+000
      vertex  6.427876e+000  1.186741e+001  0.000000e+000
      vertex  5.495090e+000  1.256184e+001  0.000000e+000
    endloop
  endfacet
  facet normal  0.000000e+000  0.000000e+000 -1.000000e+000
    outer loop
      vertex  7.713451e+000  1.339950e+001  0.000000e+000
      vertex  5.495090e+000  1.256184e+001  0.000000e+000
      vertex  4.487992e+000  1.314329e+001  0.000000e+000
    endloop
  endfacet
  facet normal  0.000000e+000  0.000000e+000 -1.000000e+000
    outer loop
      vertex  7.713451e+000  1.339950e+001  0.000000e+000
      vertex  4.487992e+000  1.314329e+001  0.000000e+000
      vertex  3.420202e+000  1.360389e+001  0.000000e+000
    endloop
  endfacet
  facet normal  0.000000e+000  0.000000e+000 -1.000000e+000
    outer loop
      vertex  7.713451e+000  1.339950e+001  0.000000e+000
      vertex  3.420202e+000  1.360389e+001  0.000000e+000
      vertex  2.306159e+000  1.393741e+001  0.000000e+000
    endloop
  endfacet
  facet normal  0.000000e+000  0.000000e+000 -9.999999e-001
    outer loop
      vertex  7.713451e+000  1.339950e+001  0.000000e+000
      vertex  2.306159e+000  1.393741e+001  0.000000e+000
      vertex  1.160929e+000  1.413935e+001  0.000000e+000
    endloop
  endfacet
  facet normal  0.000000e+000  0.000000e+000 -1.000000e+000
    outer loop
      vertex  7.713451e+000  1.339950e+001  0.000000e+000
      vertex  1.160929e+000  1.413935e+001  0.000000e+000
      vertex  6.759840e+000  1.412183e+001  0.000000e+000
    endloop
  endfacet
  facet normal  0.000000e+000  -0.000000e+000 -1.000000e+000
    outer loop
      vertex -7.713451e+000  1.339950e+001  0.000000e+000
      vertex -6.759840e+000  1.412183e+001  0.000000e+000
      vertex -1.160929e+000  1.413935e+001  0.000000e+000
    endloop
  endfacet
  facet normal  0.000000e+000  0.000000e+000 -9.999999e-001
    outer loop
      vertex -7.713451e+000  1.339950e+001  0.000000e+000
      vertex -1.160929e+000  1.413935e+001  0.000000e+000
      vertex -2.306159e+000  1.393741e+001  0.000000e+000
    endloop
  endfacet
  facet normal  0.000000e+000  0.000000e+000 -9.999999e-001
    outer loop
      vertex -7.713451e+000  1.339950e+001  0.000000e+000
      vertex -2.306159e+000  1.393741e+001  0.000000e+000
      vertex -3.420202e+000  1.360389e+001  0.000000e+000
    endloop
  endfacet
  facet normal  0.000000e+000  0.000000e+000 -1.000000e+000
    outer loop
      vertex -7.713451e+000  1.339950e+001  0.000000e+000
      vertex -3.420202e+000  1.360389e+001  0.000000e+000
      vertex -4.487992e+000  1.314329e+001  0.000000e+000
    endloop
  endfacet
  facet normal  -0.000000e+000  0.000000e+000 -1.000000e+000
    outer loop
      vertex -7.713451e+000  1.339950e+001  0.000000e+000
      vertex -4.487992e+000  1.314329e+001  0.000000e+000
      vertex -5.495090e+000  1.256184e+001  0.000000e+000
    endloop
  endfacet
  facet normal  -0.000000e+000  0.000000e+000 -1.000000e+000
    outer loop
      vertex -7.713451e+000  1.339950e+001  0.000000e+000
      vertex -5.495090e+000  1.256184e+001  0.000000e+000
      vertex -2.185648e+001  1.532089e+000  0.000000e+000
    endloop
  endfacet
  facet normal  0.000000e+000  0.000000e+000 -1.000000e+000
    outer loop
      vertex  6.759840e+000  1.412183e+001  0.000000e+000
      vertex -1.048991e-014  1.420697e+001  0.000000e+000
      vertex  5.739048e+000  1.474562e+001  0.000000e+000
    endloop
  endfacet
  facet normal  -0.000000e+000  0.000000e+000 -9.999999e-001
    outer loop
      vertex  5.739048e+000  1.474562e+001  0.000000e+000
      vertex -1.048991e-014  1.420697e+001  0.000000e+000
      vertex -5.739048e+000  1.474562e+001  0.000000e+000
    endloop
  endfacet
  facet normal  0.000000e+000  0.000000e+000 -1.000000e+000
    outer loop
      vertex -1.048991e-014  1.420697e+001  0.000000e+000
      vertex -1.160929e+000  1.413935e+001  0.000000e+000
      vertex -5.739048e+000  1.474562e+001  0.000000e+000
    endloop
  endfacet
  facet normal  0.000000e+000  -0.000000e+000 -1.000000e+000
    outer loop
      vertex -5.739048e+000  1.474562e+001  0.000000e+000
      vertex -1.160929e+000  1.413935e+001  0.000000e+000
      vertex -6.759840e+000  1.412183e+001  0.000000e+000
    endloop
  endfacet
  facet normal  0.000000e+000  0.000000e+000 -1.000000e+000
    outer loop
      vertex  7.347881e-016  1.620697e+001  0.000000e+000
      vertex  1.194814e+000  1.614734e+001  0.000000e+000
      vertex -1.194814e+000  1.614734e+001  0.000000e+000
    endloop
  endfacet
  facet normal  0.000000e+000  0.000000e+000 -1.000000e+000
    outer loop
      vertex -1.194814e+000  1.614734e+001  0.000000e+000
      vertex  1.194814e+000  1.614734e+001  0.000000e+000
      vertex  2.377754e+000  1.596904e+001  0.000000e+000
    endloop
  endfacet
  facet normal  0.000000e+000  0.000000e+000 -1.000000e+000
    outer loop
      vertex -1.194814e+000  1.614734e+001  0.000000e+000
      vertex  2.377754e+000  1.596904e+001  0.000000e+000
      vertex -2.377754e+000  1.596904e+001  0.000000e+000
    endloop
  endfacet
  facet normal  0.000000e+000  0.000000e+000 -1.000000e+000
    outer loop
      vertex -2.377754e+000  1.596904e+001  0.000000e+000
      vertex  2.377754e+000  1.596904e+001  0.000000e+000
      vertex  3.537062e+000  1.567384e+001  0.000000e+000
    endloop
  endfacet
  facet normal  0.000000e+000  0.000000e+000 -1.000000e+000
    outer loop
      vertex -2.377754e+000  1.596904e+001  0.000000e+000
      vertex  3.537062e+000  1.567384e+001  0.000000e+000
      vertex -3.537062e+000  1.567384e+001  0.000000e+000
    endloop
  endfacet
  facet normal  0.000000e+000  0.000000e+000 -1.000000e+000
    outer loop
      vertex -3.537062e+000  1.567384e+001  0.000000e+000
      vertex  3.537062e+000  1.567384e+001  0.000000e+000
      vertex  4.661218e+000  1.526468e+001  0.000000e+000
    endloop
  endfacet
  facet normal  0.000000e+000  0.000000e+000 -1.000000e+000
    outer loop
      vertex -3.537062e+000  1.567384e+001  0.000000e+000
      vertex  4.661218e+000  1.526468e+001  0.000000e+000
      vertex -4.661218e+000  1.526468e+001  0.000000e+000
    endloop
  endfacet
  facet normal  0.000000e+000  0.000000e+000 -1.000000e+000
    outer loop
      vertex -4.661218e+000  1.526468e+001  0.000000e+000
      vertex  4.661218e+000  1.526468e+001  0.000000e+000
      vertex  5.739048e+000  1.474562e+001  0.000000e+000
    endloop
  endfacet
  facet normal  0.000000e+000  0.000000e+000 -1.000000e+000
    outer loop
      vertex -4.661218e+000  1.526468e+001  0.000000e+000
      vertex  5.739048e+000  1.474562e+001  0.000000e+000
      vertex -5.739048e+000  1.474562e+001  0.000000e+000
    endloop
  endfacet
  facet normal -6.427876e-001 -7.660445e-001  0.000000e+000
    outer loop
      vertex  2.057091e+001 -1.776357e-015  1.000000e+001
      vertex  6.427876e+000  1.186741e+001  1.000000e+001
      vertex  2.057091e+001 -1.776357e-015  0.000000e+000
    endloop
  endfacet
  facet normal -6.427876e-001 -7.660445e-001  0.000000e+000
    outer loop
      vertex  2.057091e+001 -1.776357e-015  0.000000e+000
      vertex  6.427876e+000  1.186741e+001  1.000000e+001
      vertex  6.427876e+000  1.186741e+001  0.000000e+000
    endloop
  endfacet
  facet normal -2.868027e-001 -9.579896e-001  -0.000000e+000
    outer loop
      vertex  3.420202e+000  1.360389e+001  0.000000e+000
      vertex  2.306159e+000  1.393741e+001  1.000000e+001
      vertex  2.306159e+000  1.393741e+001  0.000000e+000
    endloop
  endfacet
  facet normal -1.736481e-001 -9.848077e-001  0.000000e+000
    outer loop
      vertex  2.306159e+000  1.393741e+001  0.000000e+000
      vertex  2.306159e+000  1.393741e+001  1.000000e+001
      vertex  1.160929e+000  1.413935e+001  1.000000e+001
    endloop
  endfacet
  facet normal -1.736481e-001 -9.848077e-001  -0.000000e+000
    outer loop
      vertex  2.306159e+000  1.393741e+001  0.000000e+000
      vertex  1.160929e+000  1.413935e+001  1.000000e+001
      vertex  1.160929e+000  1.413935e+001  0.000000e+000
    endloop
  endfacet
  facet normal -5.814486e-002 -9.983082e-001  0.000000e+000
    outer loop
      vertex  1.160929e+000  1.413935e+001  0.000000e+000
      vertex  1.160929e+000  1.413935e+001  1.000000e+001
      vertex -1.048991e-014  1.420697e+001  1.000000e+001
    endloop
  endfacet
  facet normal -5.814486e-002 -9.983082e-001  -0.000000e+000
    outer loop
      vertex  1.160929e+000  1.413935e+001  0.000000e+000
      vertex -1.048991e-014  1.420697e+001  1.000000e+001
      vertex -1.048991e-014  1.420697e+001  0.000000e+000
    endloop
  endfacet
  facet normal -2.868027e-001 -9.579896e-001  0.000000e+000
    outer loop
      vertex  2.306159e+000  1.393741e+001  1.000000e+001
      vertex  3.420202e+000  1.360389e+001  0.000000e+000
      vertex  3.420202e+000  1.360389e+001  1.000000e+001
    endloop
  endfacet
  facet normal -3.960799e-001 -9.182161e-001  -0.000000e+000
    outer loop
      vertex  3.420202e+000  1.360389e+001  1.000000e+001
      vertex  3.420202e+000  1.360389e+001  0.000000e+000
      vertex  4.487992e+000  1.314329e+001  0.000000e+000
    endloop
  endfacet
  facet normal -3.960799e-001 -9.182161e-001  0.000000e+000
    outer loop
      vertex  3.420202e+000  1.360389e+001  1.000000e+001
      vertex  4.487992e+000  1.314329e+001  0.000000e+000
      vertex  4.487992e+000  1.314329e+001  1.000000e+001
    endloop
  endfacet
  facet normal -5.000001e-001 -8.660254e-001  -0.000000e+000
    outer loop
      vertex  4.487992e+000  1.314329e+001  1.000000e+001
      vertex  4.487992e+000  1.314329e+001  0.000000e+000
      vertex  5.495090e+000  1.256184e+001  0.000000e+000
    endloop
  endfacet
  facet normal -5.000001e-001 -8.660254e-001  0.000000e+000
    outer loop
      vertex  4.487992e+000  1.314329e+001  1.000000e+001
      vertex  5.495090e+000  1.256184e+001  0.000000e+000
      vertex  5.495090e+000  1.256184e+001  1.000000e+001
    endloop
  endfacet
  facet normal -5.971590e-001 -8.021229e-001  -0.000000e+000
    outer loop
      vertex  5.495090e+000  1.256184e+001  1.000000e+001
      vertex  5.495090e+000  1.256184e+001  0.000000e+000
      vertex  6.427876e+000  1.186741e+001  0.000000e+000
    endloop
  endfacet
  facet normal -5.971590e-001 -8.021229e-001  0.000000e+000
    outer loop
      vertex  5.495090e+000  1.256184e+001  1.000000e+001
      vertex  6.427876e+000  1.186741e+001  0.000000e+000
      vertex  6.427876e+000  1.186741e+001  1.000000e+001
    endloop
  endfacet
  facet normal  3.960799e-001 -9.182161e-001  0.000000e+000
    outer loop
      vertex -3.420202e+000  1.360389e+001  0.000000e+000
      vertex -4.487992e+000  1.314329e+001  1.000000e+001
      vertex -4.487992e+000  1.314329e+001  0.000000e+000
    endloop
  endfacet
  facet normal  5.000001e-001 -8.660254e-001  0.000000e+000
    outer loop
      vertex -4.487992e+000  1.314329e+001  0.000000e+000
      vertex -4.487992e+000  1.314329e+001  1.000000e+001
      vertex -5.495090e+000  1.256184e+001  1.000000e+001
    endloop
  endfacet
  facet normal  5.000001e-001 -8.660254e-001  0.000000e+000
    outer loop
      vertex -4.487992e+000  1.314329e+001  0.000000e+000
      vertex -5.495090e+000  1.256184e+001  1.000000e+001
      vertex -5.495090e+000  1.256184e+001  0.000000e+000
    endloop
  endfacet
  facet normal  5.971590e-001 -8.021229e-001  0.000000e+000
    outer loop
      vertex -5.495090e+000  1.256184e+001  0.000000e+000
      vertex -5.495090e+000  1.256184e+001  1.000000e+001
      vertex -6.427876e+000  1.186741e+001  1.000000e+001
    endloop
  endfacet
  facet normal  5.971590e-001 -8.021229e-001  0.000000e+000
    outer loop
      vertex -5.495090e+000  1.256184e+001  0.000000e+000
      vertex -6.427876e+000  1.186741e+001  1.000000e+001
      vertex -6.427876e+000  1.186741e+001  0.000000e+000
    endloop
  endfacet
  facet normal  3.960799e-001 -9.182161e-001  0.000000e+000
    outer loop
      vertex -4.487992e+000  1.314329e+001  1.000000e+001
      vertex -3.420202e+000  1.360389e+001  0.000000e+000
      vertex -3.420202e+000  1.360389e+001  1.000000e+001
    endloop
  endfacet
  facet normal  2.868027e-001 -9.579896e-001  0.000000e+000
    outer loop
      vertex -3.420202e+000  1.360389e+001  1.000000e+001
      vertex -3.420202e+000  1.360389e+001  0.000000e+000
      vertex -2.306159e+000  1.393741e+001  0.000000e+000
    endloop
  endfacet
  facet normal  2.868027e-001 -9.579896e-001  0.000000e+000
    outer loop
      vertex -3.420202e+000  1.360389e+001  1.000000e+001
      vertex -2.306159e+000  1.393741e+001  0.000000e+000
      vertex -2.306159e+000  1.393741e+001  1.000000e+001
    endloop
  endfacet
  facet normal  1.736481e-001 -9.848077e-001  0.000000e+000
    outer loop
      vertex -2.306159e+000  1.393741e+001  1.000000e+001
      vertex -2.306159e+000  1.393741e+001  0.000000e+000
      vertex -1.160929e+000  1.413935e+001  0.000000e+000
    endloop
  endfacet
  facet normal  1.736481e-001 -9.848077e-001  0.000000e+000
    outer loop
      vertex -2.306159e+000  1.393741e+001  1.000000e+001
      vertex -1.160929e+000  1.413935e+001  0.000000e+000
      vertex -1.160929e+000  1.413935e+001  1.000000e+001
    endloop
  endfacet
  facet normal  5.814486e-002 -9.983082e-001  0.000000e+000
    outer loop
      vertex -1.160929e+000  1.413935e+001  1.000000e+001
      vertex -1.160929e+000  1.413935e+001  0.000000e+000
      vertex -1.048991e-014  1.420697e+001  0.000000e+000
    endloop
  endfacet
  facet normal  5.814486e-002 -9.983082e-001  0.000000e+000
    outer loop
      vertex -1.160929e+000  1.413935e+001  1.000000e+001
      vertex -1.048991e-014  1.420697e+001  0.000000e+000
      vertex -1.048991e-014  1.420697e+001  1.000000e+001
    endloop
  endfacet
  facet normal  6.427876e-001 -7.660445e-001  0.000000e+000
    outer loop
      vertex -2.057091e+001  3.552714e-015  1.000000e+001
      vertex -2.057091e+001  3.552714e-015  0.000000e+000
      vertex -6.427876e+000  1.186741e+001  1.000000e+001
    endloop
  endfacet
  facet normal  6.427876e-001 -7.660445e-001  0.000000e+000
    outer loop
      vertex -6.427876e+000  1.186741e+001  1.000000e+001
      vertex -2.057091e+001  3.552714e-015  0.000000e+000
      vertex -6.427876e+000  1.186741e+001  0.000000e+000
    endloop
  endfacet
  facet normal -7.660447e-001 -6.427872e-001  -0.000000e+000
    outer loop
      vertex -2.057091e+001  3.552714e-015  0.000000e+000
      vertex -2.057091e+001  3.552714e-015  1.000000e+001
      vertex -2.185648e+001  1.532089e+000  0.000000e+000
    endloop
  endfacet
  facet normal -7.660447e-001 -6.427872e-001  0.000000e+000
    outer loop
      vertex -2.185648e+001  1.532089e+000  0.000000e+000
      vertex -2.057091e+001  3.552714e-015  1.000000e+001
      vertex -2.185648e+001  1.532089e+000  1.000000e+001
    endloop
  endfacet
  facet normal -6.427876e-001  7.660445e-001  0.000000e+000
    outer loop
      vertex -2.185648e+001  1.532089e+000  1.000000e+001
      vertex -7.713451e+000  1.339950e+001  1.000000e+001
      vertex -2.185648e+001  1.532089e+000  0.000000e+000
    endloop
  endfacet
  facet normal -6.427876e-001  7.660445e-001  0.000000e+000
    outer loop
      vertex -2.185648e+001  1.532089e+000  0.000000e+000
      vertex -7.713451e+000  1.339950e+001  1.000000e+001
      vertex -7.713451e+000  1.339950e+001  0.000000e+000
    endloop
  endfacet
  facet normal -6.038043e-001  7.971326e-001  0.000000e+000
    outer loop
      vertex -7.713451e+000  1.339950e+001  0.000000e+000
      vertex -7.713451e+000  1.339950e+001  1.000000e+001
      vertex -6.759840e+000  1.412183e+001  0.000000e+000
    endloop
  endfacet
  facet normal -6.038043e-001  7.971326e-001  0.000000e+000
    outer loop
      vertex -6.759840e+000  1.412183e+001  0.000000e+000
      vertex -7.713451e+000  1.339950e+001  1.000000e+001
      vertex -6.759840e+000  1.412183e+001  1.000000e+001
    endloop
  endfacet
  facet normal -5.214352e-001  8.532909e-001  0.000000e+000
    outer loop
      vertex -6.759840e+000  1.412183e+001  0.000000e+000
      vertex -6.759840e+000  1.412183e+001  1.000000e+001
      vertex -5.739048e+000  1.474562e+001  0.000000e+000
    endloop
  endfacet
  facet normal -5.214352e-001  8.532909e-001  0.000000e+000
    outer loop
      vertex -5.739048e+000  1.474562e+001  0.000000e+000
      vertex -6.759840e+000  1.412183e+001  1.000000e+001
      vertex -5.739048e+000  1.474562e+001  1.000000e+001
    endloop
  endfacet
  facet normal -4.338836e-001  9.009689e-001  0.000000e+000
    outer loop
      vertex -5.739048e+000  1.474562e+001  0.000000e+000
      vertex -5.739048e+000  1.474562e+001  1.000000e+001
      vertex -4.661218e+000  1.526468e+001  0.000000e+000
    endloop
  endfacet
  facet normal -4.338836e-001  9.009689e-001  0.000000e+000
    outer loop
      vertex -4.661218e+000  1.526468e+001  0.000000e+000
      vertex -5.739048e+000  1.474562e+001  1.000000e+001
      vertex -4.661218e+000  1.526468e+001  1.000000e+001
    endloop
  endfacet
  facet normal -3.420205e-001  9.396925e-001  0.000000e+000
    outer loop
      vertex -4.661218e+000  1.526468e+001  0.000000e+000
      vertex -4.661218e+000  1.526468e+001  1.000000e+001
      vertex -3.537062e+000  1.567384e+001  0.000000e+000
    endloop
  endfacet
  facet normal -3.420205e-001  9.396925e-001  0.000000e+000
    outer loop
      vertex -3.537062e+000  1.567384e+001  0.000000e+000
      vertex -4.661218e+000  1.526468e+001  1.000000e+001
      vertex -3.537062e+000  1.567384e+001  1.000000e+001
    endloop
  endfacet
  facet normal -2.467569e-001  9.690774e-001  0.000000e+000
    outer loop
      vertex -3.537062e+000  1.567384e+001  0.000000e+000
      vertex -3.537062e+000  1.567384e+001  1.000000e+001
      vertex -2.377754e+000  1.596904e+001  0.000000e+000
    endloop
  endfacet
  facet normal -2.467569e-001  9.690774e-001  0.000000e+000
    outer loop
      vertex -2.377754e+000  1.596904e+001  0.000000e+000
      vertex -3.537062e+000  1.567384e+001  1.000000e+001
      vertex -2.377754e+000  1.596904e+001  1.000000e+001
    endloop
  endfacet
  facet normal -1.490427e-001  9.888308e-001  0.000000e+000
    outer loop
      vertex -2.377754e+000  1.596904e+001  0.000000e+000
      vertex -2.377754e+000  1.596904e+001  1.000000e+001
      vertex -1.194814e+000  1.614734e+001  0.000000e+000
    endloop
  endfacet
  facet normal -1.490427e-001  9.888308e-001  0.000000e+000
    outer loop
      vertex -1.194814e+000  1.614734e+001  0.000000e+000
      vertex -2.377754e+000  1.596904e+001  1.000000e+001
      vertex -1.194814e+000  1.614734e+001  1.000000e+001
    endloop
  endfacet
  facet normal -4.984643e-002  9.987569e-001  0.000000e+000
    outer loop
      vertex -1.194814e+000  1.614734e+001  0.000000e+000
      vertex -1.194814e+000  1.614734e+001  1.000000e+001
      vertex  7.347881e-016  1.620697e+001  0.000000e+000
    endloop
  endfacet
  facet normal -4.984643e-002  9.987569e-001  0.000000e+000
    outer loop
      vertex  7.347881e-016  1.620697e+001  0.000000e+000
      vertex -1.194814e+000  1.614734e+001  1.000000e+001
      vertex  7.347881e-016  1.620697e+001  1.000000e+001
    endloop
  endfacet
  facet normal  4.984643e-002  9.987569e-001  0.000000e+000
    outer loop
      vertex  7.347881e-016  1.620697e+001  0.000000e+000
      vertex  7.347881e-016  1.620697e+001  1.000000e+001
      vertex  1.194814e+000  1.614734e+001  0.000000e+000
    endloop
  endfacet
  facet normal  4.984643e-002  9.987569e-001  -0.000000e+000
    outer loop
      vertex  1.194814e+000  1.614734e+001  0.000000e+000
      vertex  7.347881e-016  1.620697e+001  1.000000e+001
      vertex  1.194814e+000  1.614734e+001  1.000000e+001
    endloop
  endfacet
  facet normal  1.490427e-001  9.888308e-001  0.000000e+000
    outer loop
      vertex  1.194814e+000  1.614734e+001  0.000000e+000
      vertex  1.194814e+000  1.614734e+001  1.000000e+001
      vertex  2.377754e+000  1.596904e+001  0.000000e+000
    endloop
  endfacet
  facet normal  1.490427e-001  9.888308e-001  -0.000000e+000
    outer loop
      vertex  2.377754e+000  1.596904e+001  0.000000e+000
      vertex  1.194814e+000  1.614734e+001  1.000000e+001
      vertex  2.377754e+000  1.596904e+001  1.000000e+001
    endloop
  endfacet
  facet normal  2.467569e-001  9.690774e-001  0.000000e+000
    outer loop
      vertex  2.377754e+000  1.596904e+001  0.000000e+000
      vertex  2.377754e+000  1.596904e+001  1.000000e+001
      vertex  3.537062e+000  1.567384e+001  0.000000e+000
    endloop
  endfacet
  facet normal  2.467569e-001  9.690774e-001  -0.000000e+000
    outer loop
      vertex  3.537062e+000  1.567384e+001  0.000000e+000
      vertex  2.377754e+000  1.596904e+001  1.000000e+001
      vertex  3.537062e+000  1.567384e+001  1.000000e+001
    endloop
  endfacet
  facet normal  3.420205e-001  9.396925e-001  0.000000e+000
    outer loop
      vertex  3.537062e+000  1.567384e+001  0.000000e+000
      vertex  3.537062e+000  1.567384e+001  1.000000e+001
      vertex  4.661218e+000  1.526468e+001  0.000000e+000
    endloop
  endfacet
  facet normal  3.420205e-001  9.396925e-001  -0.000000e+000
    outer loop
      vertex  4.661218e+000  1.526468e+001  0.000000e+000
      vertex  3.537062e+000  1.567384e+001  1.000000e+001
      vertex  4.661218e+000  1.526468e+001  1.000000e+001
    endloop
  endfacet
  facet normal  4.338836e-001  9.009689e-001  0.000000e+000
    outer loop
      vertex  4.661218e+000  1.526468e+001  0.000000e+000
      vertex  4.661218e+000  1.526468e+001  1.000000e+001
      vertex  5.739048e+000  1.474562e+001  0.000000e+000
    endloop
  endfacet
  facet normal  4.338836e-001  9.009689e-001  -0.000000e+000
    outer loop
      vertex  5.739048e+000  1.474562e+001  0.000000e+000
      vertex  4.661218e+000  1.526468e+001  1.000000e+001
      vertex  5.739048e+000  1.474562e+001  1.000000e+001
    endloop
  endfacet
  facet normal  5.214352e-001  8.532909e-001  0.000000e+000
    outer loop
      vertex  5.739048e+000  1.474562e+001  0.000000e+000
      vertex  5.739048e+000  1.474562e+001  1.000000e+001
      vertex  6.759840e+000  1.412183e+001  0.000000e+000
    endloop
  endfacet
  facet normal  5.214352e-001  8.532909e-001  -0.000000e+000
    outer loop
      vertex  6.759840e+000  1.412183e+001  0.000000e+000
      vertex  5.739048e+000  1.474562e+001  1.000000e+001
      vertex  6.759840e+000  1.412183e+001  1.000000e+001
    endloop
  endfacet
  facet normal  6.038043e-001  7.971326e-001  0.000000e+000
    outer loop
      vertex  6.759840e+000  1.412183e+001  0.000000e+000
      vertex  6.759840e+000  1.412183e+001  1.000000e+001
      vertex  7.713451e+000  1.339950e+001  0.000000e+000
    endloop
  endfacet
  facet normal  6.038043e-001  7.971326e-001  -0.000000e+000
    outer loop
      vertex  7.713451e+000  1.339950e+001  0.000000e+000
      vertex  6.759840e+000  1.412183e+001  1.000000e+001
      vertex  7.713451e+000  1.339950e+001  1.000000e+001
    endloop
  endfacet
  facet normal  6.427876e-001  7.660445e-001  -0.000000e+000
    outer loop
      vertex  2.185648e+001  1.532089e+000  1.000000e+001
      vertex  2.185648e+001  1.532089e+000  0.000000e+000
      vertex  7.713451e+000  1.339950e+001  1.000000e+001
    endloop
  endfacet
  facet normal  6.427876e-001  7.660445e-001  0.000000e+000
    outer loop
      vertex  7.713451e+000  1.339950e+001  1.000000e+001
      vertex  2.185648e+001  1.532089e+000  0.000000e+000
      vertex  7.713451e+000  1.339950e+001  0.000000e+000
    endloop
  endfacet
  facet normal  7.660447e-001 -6.427872e-001  0.000000e+000
    outer loop
      vertex  2.057091e+001 -1.776357e-015  0.000000e+000
      vertex  2.185648e+001  1.532089e+000  0.000000e+000
      vertex  2.057091e+001 -1.776357e-015  1.000000e+001
    endloop
  endfacet
  facet normal  7.660447e-001 -6.427872e-001  0.000000e+000
    outer loop
      vertex  2.057091e+001 -1.776357e-015  1.000000e+001
      vertex  2.185648e+001  1.532089e+000  0.000000e+000
      vertex  2.185648e+001  1.532089e+000  1.000000e+001
    endloop
  endfacet
endsolid CATIA STL
